<mxfile host="65bd71144e">
    <diagram id="LGlUjaiB2D-TcgnH2i80" name="Page-1">
        <mxGraphModel dx="2772" dy="1558" grid="1" gridSize="10" guides="1" tooltips="1" connect="1" arrows="1" fold="1" page="1" pageScale="1" pageWidth="3300" pageHeight="2339" math="0" shadow="0">
            <root>
                <mxCell id="0"/>
                <mxCell id="1" parent="0"/>
                <mxCell id="2" value="" style="whiteSpace=wrap;html=1;" parent="1" vertex="1">
                    <mxGeometry x="320" y="90" width="1550" height="2430" as="geometry"/>
                </mxCell>
                <mxCell id="3" style="edgeStyle=none;shape=connector;rounded=1;html=1;entryX=0;entryY=0.5;entryDx=0;entryDy=0;labelBackgroundColor=default;strokeColor=default;strokeWidth=3;fontFamily=Helvetica;fontSize=20;fontColor=default;startArrow=none;startFill=0;endArrow=none;endFill=0;" parent="1" source="4" target="22" edge="1">
                    <mxGeometry relative="1" as="geometry"/>
                </mxCell>
                <mxCell id="4" value="&lt;font style=&quot;font-size: 20px;&quot;&gt;&lt;b&gt;Tutor&lt;/b&gt;&lt;/font&gt;" style="shape=umlActor;verticalLabelPosition=bottom;verticalAlign=top;html=1;outlineConnect=0;aspect=fixed;" parent="1" vertex="1">
                    <mxGeometry x="60" y="610" width="140" height="280" as="geometry"/>
                </mxCell>
                <mxCell id="5" value="&lt;font style=&quot;font-size: 25px;&quot;&gt;Crear cuenta&lt;/font&gt;" style="ellipse;whiteSpace=wrap;html=1;fontSize=25;" parent="1" vertex="1">
                    <mxGeometry x="595" y="160" width="360" height="100" as="geometry"/>
                </mxCell>
                <mxCell id="6" style="edgeStyle=none;shape=connector;rounded=1;html=1;labelBackgroundColor=default;strokeColor=default;strokeWidth=3;fontFamily=Helvetica;fontSize=11;fontColor=default;endArrow=none;endFill=0;exitX=0;exitY=0.5;exitDx=0;exitDy=0;" parent="1" source="9" target="4" edge="1">
                    <mxGeometry relative="1" as="geometry"/>
                </mxCell>
                <mxCell id="7" style="edgeStyle=none;shape=connector;rounded=1;html=1;entryX=0.5;entryY=1;entryDx=0;entryDy=0;labelBackgroundColor=default;strokeColor=default;strokeWidth=3;fontFamily=Helvetica;fontSize=11;fontColor=default;endArrow=none;endFill=0;dashed=1;startArrow=block;startFill=1;" parent="1" source="9" target="5" edge="1">
                    <mxGeometry relative="1" as="geometry"/>
                </mxCell>
                <mxCell id="8" value="&lt;font style=&quot;font-size: 21px;&quot;&gt;&amp;lt;&amp;lt;includes&amp;gt;&amp;gt;&lt;/font&gt;" style="edgeLabel;html=1;align=center;verticalAlign=middle;resizable=0;points=[];fontSize=17;" parent="7" connectable="0" vertex="1">
                    <mxGeometry x="-0.2636" y="1" relative="1" as="geometry">
                        <mxPoint x="1" y="-10" as="offset"/>
                    </mxGeometry>
                </mxCell>
                <mxCell id="9" value="&lt;font style=&quot;font-size: 25px;&quot;&gt;Iniciar Sesión&lt;/font&gt;" style="ellipse;whiteSpace=wrap;html=1;fontSize=25;" parent="1" vertex="1">
                    <mxGeometry x="600" y="360" width="350" height="110" as="geometry"/>
                </mxCell>
                <mxCell id="12" style="edgeStyle=none;shape=connector;rounded=1;html=1;labelBackgroundColor=default;strokeColor=default;strokeWidth=3;fontFamily=Helvetica;fontSize=11;fontColor=default;endArrow=none;endFill=0;exitX=0;exitY=0.5;exitDx=0;exitDy=0;" parent="1" source="13" target="4" edge="1">
                    <mxGeometry relative="1" as="geometry"/>
                </mxCell>
                <mxCell id="13" value="&lt;font style=&quot;font-size: 25px;&quot;&gt;Inscribir niño&lt;/font&gt;" style="ellipse;whiteSpace=wrap;html=1;fontSize=25;" parent="1" vertex="1">
                    <mxGeometry x="595" y="530" width="360" height="100" as="geometry"/>
                </mxCell>
                <mxCell id="14" style="edgeStyle=none;shape=connector;rounded=1;html=1;labelBackgroundColor=default;strokeColor=default;strokeWidth=3;fontFamily=Helvetica;fontSize=11;fontColor=default;endArrow=none;endFill=0;exitX=0;exitY=0.5;exitDx=0;exitDy=0;" parent="1" source="15" target="4" edge="1">
                    <mxGeometry relative="1" as="geometry"/>
                </mxCell>
                <mxCell id="15" value="Editar perfil" style="ellipse;whiteSpace=wrap;html=1;fontSize=25;" parent="1" vertex="1">
                    <mxGeometry x="580" y="860" width="370" height="100" as="geometry"/>
                </mxCell>
                <mxCell id="16" style="edgeStyle=none;html=1;exitX=0;exitY=0.5;exitDx=0;exitDy=0;strokeWidth=3;endArrow=none;endFill=0;" parent="1" source="5" target="4" edge="1">
                    <mxGeometry relative="1" as="geometry"/>
                </mxCell>
                <mxCell id="22" value="&lt;font style=&quot;font-size: 25px;&quot;&gt;Ver cronograma&lt;/font&gt;" style="ellipse;whiteSpace=wrap;html=1;fontSize=25;" parent="1" vertex="1">
                    <mxGeometry x="600" y="720" width="350" height="100" as="geometry"/>
                </mxCell>
                <mxCell id="23" value="CAMPAMENTO" style="text;strokeColor=none;fillColor=none;html=1;fontSize=24;fontStyle=1;verticalAlign=middle;align=center;" parent="1" vertex="1">
                    <mxGeometry x="930" y="112" width="330" height="40" as="geometry"/>
                </mxCell>
                <mxCell id="24" value="Modificar información niño" style="ellipse;whiteSpace=wrap;html=1;fontSize=25;" vertex="1" parent="1">
                    <mxGeometry x="595" y="990" width="350" height="100" as="geometry"/>
                </mxCell>
                <mxCell id="28" style="edgeStyle=none;shape=connector;rounded=1;html=1;entryX=0;entryY=0.5;entryDx=0;entryDy=0;labelBackgroundColor=default;strokeColor=default;strokeWidth=3;fontFamily=Helvetica;fontSize=20;fontColor=default;startArrow=none;startFill=0;endArrow=none;endFill=0;" edge="1" parent="1" source="4" target="24">
                    <mxGeometry relative="1" as="geometry">
                        <mxPoint x="100" y="580.0005324957425" as="sourcePoint"/>
                        <mxPoint x="341.50962608345844" y="1033.2124337124678" as="targetPoint"/>
                    </mxGeometry>
                </mxCell>
                <mxCell id="29" value="Ver resumen semanal niño" style="ellipse;whiteSpace=wrap;html=1;fontSize=25;" vertex="1" parent="1">
                    <mxGeometry x="595" y="1119.5" width="350" height="100" as="geometry"/>
                </mxCell>
                <mxCell id="30" style="edgeStyle=none;shape=connector;rounded=1;html=1;entryX=0;entryY=0.5;entryDx=0;entryDy=0;labelBackgroundColor=default;strokeColor=default;strokeWidth=3;fontFamily=Helvetica;fontSize=20;fontColor=default;startArrow=none;startFill=0;endArrow=none;endFill=0;" edge="1" parent="1" target="29" source="4">
                    <mxGeometry relative="1" as="geometry">
                        <mxPoint x="177.89473684210498" y="529.9999999999998" as="sourcePoint"/>
                        <mxPoint x="341.50962608345844" y="1163.2124337124678" as="targetPoint"/>
                    </mxGeometry>
                </mxCell>
                <mxCell id="33" value="&lt;font style=&quot;font-size: 20px;&quot;&gt;&lt;b&gt;Monitor&lt;/b&gt;&lt;/font&gt;" style="shape=umlActor;verticalLabelPosition=bottom;verticalAlign=top;html=1;outlineConnect=0;aspect=fixed;" vertex="1" parent="1">
                    <mxGeometry x="1980" y="610" width="140" height="280" as="geometry"/>
                </mxCell>
                <mxCell id="34" value="&lt;font style=&quot;font-size: 25px;&quot;&gt;Consultar cronograma actividades&lt;/font&gt;" style="ellipse;whiteSpace=wrap;html=1;fontSize=25;aspect=fixed;" vertex="1" parent="1">
                    <mxGeometry x="1290" y="143.21" width="425" height="133.57" as="geometry"/>
                </mxCell>
                <mxCell id="35" style="edgeStyle=none;html=1;strokeWidth=3;endArrow=none;endFill=0;entryX=1;entryY=0.5;entryDx=0;entryDy=0;" edge="1" parent="1" source="33" target="34">
                    <mxGeometry relative="1" as="geometry">
                        <mxPoint x="2185" y="240" as="sourcePoint"/>
                        <mxPoint x="1790" y="698.7096774193546" as="targetPoint"/>
                    </mxGeometry>
                </mxCell>
                <mxCell id="36" value="&lt;font style=&quot;font-size: 25px;&quot;&gt;Gestionar actividades&lt;/font&gt;" style="ellipse;whiteSpace=wrap;html=1;fontSize=25;aspect=fixed;" vertex="1" parent="1">
                    <mxGeometry x="1327.5" y="320" width="350" height="97.22" as="geometry"/>
                </mxCell>
                <mxCell id="UrW0_3CiLfcYc7NUkpTv-36" value="Editar resumen semanal niño" style="ellipse;whiteSpace=wrap;html=1;fontSize=25;aspect=fixed;" vertex="1" parent="1">
                    <mxGeometry x="1312.5" y="460" width="380" height="105.56" as="geometry"/>
                </mxCell>
                <mxCell id="37" style="edgeStyle=none;html=1;strokeWidth=3;endArrow=none;endFill=0;entryX=1;entryY=0.5;entryDx=0;entryDy=0;" edge="1" parent="1" source="33" target="36">
                    <mxGeometry relative="1" as="geometry">
                        <mxPoint x="1990" y="800" as="sourcePoint"/>
                        <mxPoint x="1714.9999999999873" y="389.9950000000001" as="targetPoint"/>
                    </mxGeometry>
                </mxCell>
                <mxCell id="UrW0_3CiLfcYc7NUkpTv-37" value="Registrar observaciones de los niños" style="ellipse;whiteSpace=wrap;html=1;fontSize=25;aspect=fixed;" vertex="1" parent="1">
                    <mxGeometry x="1300" y="640" width="468.01" height="130" as="geometry"/>
                </mxCell>
                <mxCell id="UrW0_3CiLfcYc7NUkpTv-38" value="Acceder a la información de los niños" style="ellipse;whiteSpace=wrap;html=1;fontSize=25;aspect=fixed;" vertex="1" parent="1">
                    <mxGeometry x="1290" y="800" width="468.01" height="130" as="geometry"/>
                </mxCell>
                <mxCell id="38" style="edgeStyle=none;html=1;strokeWidth=3;endArrow=none;endFill=0;entryX=1;entryY=0.5;entryDx=0;entryDy=0;" edge="1" parent="1" source="33" target="UrW0_3CiLfcYc7NUkpTv-36">
                    <mxGeometry relative="1" as="geometry">
                        <mxPoint x="1990" y="688.3293959731536" as="sourcePoint"/>
                        <mxPoint x="1687.5000000000045" y="378.6099999999999" as="targetPoint"/>
                    </mxGeometry>
                </mxCell>
                <mxCell id="39" style="edgeStyle=none;html=1;strokeWidth=3;endArrow=none;endFill=0;entryX=1;entryY=0.5;entryDx=0;entryDy=0;" edge="1" parent="1" source="33" target="UrW0_3CiLfcYc7NUkpTv-37">
                    <mxGeometry relative="1" as="geometry">
                        <mxPoint x="1990" y="713.551328671329" as="sourcePoint"/>
                        <mxPoint x="1702.499999999999" y="522.7800000000002" as="targetPoint"/>
                    </mxGeometry>
                </mxCell>
                <mxCell id="40" style="edgeStyle=none;html=1;strokeWidth=3;endArrow=none;endFill=0;entryX=1;entryY=0.5;entryDx=0;entryDy=0;" edge="1" parent="1" source="33" target="UrW0_3CiLfcYc7NUkpTv-38">
                    <mxGeometry relative="1" as="geometry">
                        <mxPoint x="1990" y="748.82939111316" as="sourcePoint"/>
                        <mxPoint x="1778.0099999999984" y="715" as="targetPoint"/>
                    </mxGeometry>
                </mxCell>
                <mxCell id="41" value="Pasar lista (control de asistencia)" style="ellipse;whiteSpace=wrap;html=1;fontSize=25;aspect=fixed;" vertex="1" parent="1">
                    <mxGeometry x="1300" y="960" width="468.01" height="130" as="geometry"/>
                </mxCell>
                <mxCell id="43" style="edgeStyle=none;html=1;strokeWidth=3;endArrow=none;endFill=0;entryX=1;entryY=0.5;entryDx=0;entryDy=0;" edge="1" parent="1" source="33" target="41">
                    <mxGeometry relative="1" as="geometry">
                        <mxPoint x="2001.99" y="909.9994373094967" as="sourcePoint"/>
                        <mxPoint x="1779.9999999999984" y="997.4300000000001" as="targetPoint"/>
                    </mxGeometry>
                </mxCell>
                <mxCell id="44" value="&lt;font style=&quot;font-size: 20px;&quot;&gt;&lt;b&gt;Administrador&lt;/b&gt;&lt;/font&gt;" style="shape=umlActor;verticalLabelPosition=bottom;verticalAlign=top;html=1;outlineConnect=0;aspect=fixed;" vertex="1" parent="1">
                    <mxGeometry x="50" y="1890" width="140" height="280" as="geometry"/>
                </mxCell>
                <mxCell id="45" value="&lt;font style=&quot;font-size: 25px;&quot;&gt;Gestionar inscripciones&lt;/font&gt;" style="ellipse;whiteSpace=wrap;html=1;fontSize=25;" vertex="1" parent="1">
                    <mxGeometry x="585" y="1470" width="360" height="100" as="geometry"/>
                </mxCell>
                <mxCell id="46" style="edgeStyle=none;shape=connector;rounded=1;html=1;labelBackgroundColor=default;strokeColor=default;strokeWidth=3;fontFamily=Helvetica;fontSize=11;fontColor=default;endArrow=none;endFill=0;exitX=0;exitY=0.5;exitDx=0;exitDy=0;" edge="1" parent="1" source="47" target="44">
                    <mxGeometry relative="1" as="geometry"/>
                </mxCell>
                <mxCell id="47" value="&lt;font style=&quot;font-size: 25px;&quot;&gt;Gestionar cronograma&lt;/font&gt;" style="ellipse;whiteSpace=wrap;html=1;fontSize=25;" vertex="1" parent="1">
                    <mxGeometry x="590" y="1600" width="350" height="110" as="geometry"/>
                </mxCell>
                <mxCell id="48" style="edgeStyle=none;shape=connector;rounded=1;html=1;labelBackgroundColor=default;strokeColor=default;strokeWidth=3;fontFamily=Helvetica;fontSize=11;fontColor=default;endArrow=none;endFill=0;exitX=0;exitY=0.5;exitDx=0;exitDy=0;" edge="1" parent="1" source="49" target="44">
                    <mxGeometry relative="1" as="geometry">
                        <mxPoint x="250" y="1920" as="targetPoint"/>
                    </mxGeometry>
                </mxCell>
                <mxCell id="49" value="Gestionar grupos de niños" style="ellipse;whiteSpace=wrap;html=1;fontSize=25;" vertex="1" parent="1">
                    <mxGeometry x="585" y="1730" width="360" height="100" as="geometry"/>
                </mxCell>
                <mxCell id="50" style="edgeStyle=none;html=1;exitX=0;exitY=0.5;exitDx=0;exitDy=0;strokeWidth=3;endArrow=none;endFill=0;" edge="1" parent="1" source="45" target="44">
                    <mxGeometry relative="1" as="geometry"/>
                </mxCell>
                <mxCell id="51" style="edgeStyle=none;shape=connector;rounded=1;html=1;labelBackgroundColor=default;strokeColor=default;strokeWidth=3;fontFamily=Helvetica;fontSize=11;fontColor=default;endArrow=none;endFill=0;exitX=0;exitY=0.5;exitDx=0;exitDy=0;" edge="1" parent="1" source="52" target="44">
                    <mxGeometry relative="1" as="geometry">
                        <mxPoint x="185" y="2032.3655913978496" as="targetPoint"/>
                    </mxGeometry>
                </mxCell>
                <mxCell id="52" value="Gestionar monitores" style="ellipse;whiteSpace=wrap;html=1;fontSize=25;" vertex="1" parent="1">
                    <mxGeometry x="595" y="1950" width="360" height="100" as="geometry"/>
                </mxCell>
                <mxCell id="53" style="edgeStyle=none;shape=connector;rounded=1;html=1;labelBackgroundColor=default;strokeColor=default;strokeWidth=3;fontFamily=Helvetica;fontSize=11;fontColor=default;endArrow=none;endFill=0;exitX=0;exitY=0.5;exitDx=0;exitDy=0;" edge="1" parent="1" source="54" target="44">
                    <mxGeometry relative="1" as="geometry">
                        <mxPoint x="210" y="1912.3655913978496" as="targetPoint"/>
                    </mxGeometry>
                </mxCell>
                <mxCell id="54" value="Gestionar tarifas" style="ellipse;whiteSpace=wrap;html=1;fontSize=25;" vertex="1" parent="1">
                    <mxGeometry x="590" y="2120" width="360" height="100" as="geometry"/>
                </mxCell>
                <mxCell id="55" style="edgeStyle=none;shape=connector;rounded=1;html=1;labelBackgroundColor=default;strokeColor=default;strokeWidth=3;fontFamily=Helvetica;fontSize=11;fontColor=default;endArrow=none;endFill=0;exitX=0;exitY=0.5;exitDx=0;exitDy=0;" edge="1" parent="1" source="56" target="44">
                    <mxGeometry relative="1" as="geometry">
                        <mxPoint x="180" y="2312" as="targetPoint"/>
                    </mxGeometry>
                </mxCell>
                <mxCell id="56" value="Gestionar incidencias" style="ellipse;whiteSpace=wrap;html=1;fontSize=25;" vertex="1" parent="1">
                    <mxGeometry x="585" y="2250" width="360" height="100" as="geometry"/>
                </mxCell>
                <mxCell id="57" style="edgeStyle=none;shape=connector;rounded=1;html=1;entryX=0.5;entryY=1;entryDx=0;entryDy=0;labelBackgroundColor=default;strokeColor=default;strokeWidth=3;fontFamily=Helvetica;fontSize=11;fontColor=default;endArrow=none;endFill=0;dashed=1;startArrow=block;startFill=1;exitX=0.5;exitY=0;exitDx=0;exitDy=0;" edge="1" parent="1" source="22" target="13">
                    <mxGeometry relative="1" as="geometry">
                        <mxPoint x="900" y="730" as="sourcePoint"/>
                        <mxPoint x="900" y="630" as="targetPoint"/>
                    </mxGeometry>
                </mxCell>
                <mxCell id="58" value="&lt;font style=&quot;font-size: 21px;&quot;&gt;&amp;lt;&amp;lt;includes&amp;gt;&amp;gt;&lt;/font&gt;" style="edgeLabel;html=1;align=center;verticalAlign=middle;resizable=0;points=[];fontSize=17;" connectable="0" vertex="1" parent="57">
                    <mxGeometry x="-0.2636" y="1" relative="1" as="geometry">
                        <mxPoint x="1" y="-10" as="offset"/>
                    </mxGeometry>
                </mxCell>
                <mxCell id="UrW0_3CiLfcYc7NUkpTv-58" value="Crear incidencia" style="ellipse;whiteSpace=wrap;html=1;fontSize=25;" vertex="1" parent="1">
                    <mxGeometry x="600" y="1250" width="350" height="100" as="geometry"/>
                </mxCell>
                <mxCell id="59" style="edgeStyle=none;shape=connector;rounded=1;html=1;entryX=0;entryY=0.5;entryDx=0;entryDy=0;labelBackgroundColor=default;strokeColor=default;strokeWidth=3;fontFamily=Helvetica;fontSize=20;fontColor=default;startArrow=none;startFill=0;endArrow=none;endFill=0;" edge="1" parent="1" source="4" target="UrW0_3CiLfcYc7NUkpTv-58">
                    <mxGeometry relative="1" as="geometry">
                        <mxPoint x="210" y="823.1505376344085" as="sourcePoint"/>
                        <mxPoint x="605" y="1179.5" as="targetPoint"/>
                    </mxGeometry>
                </mxCell>
            </root>
        </mxGraphModel>
    </diagram>
</mxfile>